<?xml version="1.0" encoding="UTF-8"?>
<!DOCTYPE svg PUBLIC "-//W3C//DTD SVG 1.1//EN" "http://www.w3.org/Graphics/SVG/1.1/DTD/svg11.dtd">
<!-- Creator: CorelDRAW 2018 -->
<svg xmlns="http://www.w3.org/2000/svg" xml:space="preserve" width="31.6635mm" height="58.5444mm" version="1.1" style="shape-rendering:geometricPrecision; text-rendering:geometricPrecision; image-rendering:optimizeQuality; fill-rule:evenodd; clip-rule:evenodd"
viewBox="0 0 3166.34 5854.42"
 xmlns:xlink="http://www.w3.org/1999/xlink">
 <defs>
  <style type="text/css">
   <![CDATA[
    .fil0 {fill:#3C69D5}
   ]]>
  </style>
 </defs>
 <g id="Layer_x0020_1">
  <metadata id="CorelCorpID_0Corel-Layer"/>
  <path class="fil0" d="M884.29 1375.94l0 727.38 -727.39 0c-106.92,0 -156.9,49.98 -156.9,156.91l0 898.55c0,124.95 61.5,156.89 185.42,156.89l698.87 0 0 2410.39c0,77.66 50.72,128.37 128.36,128.37l955.62 0c124.95,0 156.89,-61.5 156.89,-185.41l0 -2353.35 841.5 0c84.9,0 156.9,-27.48 156.9,-114.1l0 -998.4c0,-66.51 -86.62,-99.85 -156.9,-99.85l-841.5 0 0 -656.08c0,-298.94 215.47,-299.8 442.13,-299.52 353.11,0.43 599.06,57.75 599.06,-156.88l0 -827.25c0,-89 -40.82,-156.89 -128.37,-156.89 -435.94,0 -960.21,-47.79 -1357.2,111.86 -309.11,124.32 -556.07,383.35 -680.56,688.68 -64.45,158.03 -115.93,349.36 -115.93,568.7z"/>
 </g>
</svg>
