<?xml version="1.0" encoding="UTF-8"?>
<!DOCTYPE svg PUBLIC "-//W3C//DTD SVG 1.1//EN" "http://www.w3.org/Graphics/SVG/1.1/DTD/svg11.dtd">
<!-- Creator: CorelDRAW 2018 -->
<svg xmlns="http://www.w3.org/2000/svg" xml:space="preserve" width="64.25mm" height="64.25mm" version="1.1" style="shape-rendering:geometricPrecision; text-rendering:geometricPrecision; image-rendering:optimizeQuality; fill-rule:evenodd; clip-rule:evenodd"
viewBox="0 0 6425 6425"
 xmlns:xlink="http://www.w3.org/1999/xlink">
 <defs>
  <style type="text/css">
   <![CDATA[
    .fil0 {fill:#FEFEFE}
   ]]>
  </style>
 </defs>
 <g id="Layer_x0020_1">
  <metadata id="CorelCorpID_0Corel-Layer"/>
  <path class="fil0" d="M-0 878.41l0 4668.18c0,437.53 440.88,878.41 878.41,878.41l1957.62 0 0 -2271.34 -752.93 0 0 -1129.39 752.93 0 0 -715.29c0,-685.31 494.29,-1179.58 1179.6,-1179.58l1091.74 0 0 1129.4 -1141.94 0 0 765.47 1141.94 0c-11.24,23.41 -188.23,1063.17 -188.23,1129.39l-953.71 0 0 2271.34 1581.16 0c234.28,0 485.21,-151.95 605.84,-272.57 119.88,-119.89 272.57,-373.44 272.57,-605.84l0 -4668.18c0,-234.28 -151.95,-485.21 -272.57,-605.84 -120.63,-120.62 -371.56,-272.57 -605.84,-272.57l-4668.18 0c-437.38,0 -878.41,441.03 -878.41,878.41z"/>
 </g>
</svg>
