<?xml version="1.0" encoding="UTF-8"?>
<!DOCTYPE svg PUBLIC "-//W3C//DTD SVG 1.1//EN" "http://www.w3.org/Graphics/SVG/1.1/DTD/svg11.dtd">
<!-- Creator: CorelDRAW 2018 -->
<svg xmlns="http://www.w3.org/2000/svg" xml:space="preserve" width="74.8049mm" height="47.8717mm" version="1.1" style="shape-rendering:geometricPrecision; text-rendering:geometricPrecision; image-rendering:optimizeQuality; fill-rule:evenodd; clip-rule:evenodd"
viewBox="0 0 7480.5 4787.18"
 xmlns:xlink="http://www.w3.org/1999/xlink">
 <defs>
  <style type="text/css">
   <![CDATA[
    .fil0 {fill:#F34A38}
   ]]>
  </style>
 </defs>
 <g id="Layer_x0020_1">
  <metadata id="CorelCorpID_0Corel-Layer"/>
  <g id="_780595000">
   <path class="fil0" d="M-0 2308.43c0,416.76 45.49,749.41 233.75,1125 65.92,131.49 134.45,252.79 219.16,365.26l198.36 239.95c30.82,40.3 28.85,43.52 70.67,75.43 98.46,75.17 147.33,136.55 321.43,262.99 689.93,501.07 1712.85,532.63 2447.66,151.3l272.3 -166.01c625.84,-453.39 1028.86,-1155.45 1028.86,-1951.64l0 -438.31 -2103.89 0c-304.59,0 -233.76,255.81 -233.76,701.3 0,289.61 248.24,219.15 555.19,219.15 258.12,0 516.23,0 774.35,0 -53.41,229.27 -284.68,511.83 -484.03,670.19 -300.09,238.43 -566.42,308.7 -991.62,308.7 -216.1,0 -388.26,-73.6 -547.02,-139.66 -81.3,-33.8 -148.96,-78.25 -212.69,-123.36 -141.38,-100.07 -243.71,-197.62 -348.87,-337.81 -29.73,-39.62 -40.34,-62.85 -68.96,-106.37 -262.95,-399.95 -275.39,-975.04 -74.34,-1406.69 213.17,-457.65 737.58,-837.4 1281.1,-837.4 406.35,0 627.84,75.88 929.25,283.4 68.63,47.25 154.21,140.3 224.97,140.3 133.97,0 246.82,-181.11 333.86,-250.55 355.48,-283.59 354,-376.44 -29.94,-637.79 -67.61,-46.02 -111.2,-78.97 -184.14,-122.68 -386.35,-231.61 -793.26,-333.13 -1303.22,-333.13 -416.22,0 -950.13,193.36 -1283.49,440.52 -376.39,279.05 -579.92,512.79 -796.05,942.58 -112.86,224.42 -228.89,596.53 -228.89,925.33z"/>
   <path class="fil0" d="M5990.24 1534.09l0 496.74 -555.19 0c-73.84,0 -146.11,52.72 -146.11,131.49l0 511.38c0,78.77 72.27,131.49 146.11,131.49l555.19 0 0 496.74c0,281.2 192.6,219.16 599.02,219.16 90.7,0 175.33,-52.29 175.33,-116.88l0 -599.02c140.43,0 576.93,22.21 657.55,-29.14 20.36,-12.96 58.36,-58.04 58.36,-87.75l0 -540.57c0,-44.58 -67.2,-116.9 -146.11,-116.9l-569.8 0 0 -599.02c0,-24.35 -32.38,-67.83 -49.63,-81.86 -75.66,-61.54 -409.41,-35.02 -563.99,-35.02 -47.75,0 -105.32,31.81 -126.39,63.56 -22.1,33.29 -34.34,103.11 -34.34,155.6z"/>
  </g>
 </g>
</svg>
