<?xml version="1.0" encoding="UTF-8"?>
<!DOCTYPE svg PUBLIC "-//W3C//DTD SVG 1.1//EN" "http://www.w3.org/Graphics/SVG/1.1/DTD/svg11.dtd">
<!-- Creator: CorelDRAW 2018 -->
<svg xmlns="http://www.w3.org/2000/svg" xml:space="preserve" width="82.9046mm" height="82.8038mm" version="1.1" style="shape-rendering:geometricPrecision; text-rendering:geometricPrecision; image-rendering:optimizeQuality; fill-rule:evenodd; clip-rule:evenodd"
viewBox="0 0 8290.46 8280.38"
 xmlns:xlink="http://www.w3.org/1999/xlink">
 <defs>
  <style type="text/css">
   <![CDATA[
    .fil0 {fill:#FEFEFE}
   ]]>
  </style>
 </defs>
 <g id="Layer_x0020_1">
  <metadata id="CorelCorpID_0Corel-Layer"/>
  <g id="_776157136">
   <path class="fil0" d="M2624.66 4123.26c0,483.73 258.83,977.58 648.47,1248.06 249.35,173.09 547.58,284.98 858.6,284.98 73.73,0 273.69,-25.23 340.45,-41.13 53.65,-12.79 94.13,-24.23 147.07,-39.2 54.91,-15.54 95.1,-36.04 140.23,-54.5 124.54,-50.94 240.86,-140.2 344.82,-222.44 22.55,-17.84 28.88,-24.48 49.92,-43.22 166.68,-148.47 278.43,-286.15 368.52,-495.08 262.09,-607.74 130.13,-1245.7 -309.39,-1685.22 -358.73,-358.72 -871.69,-530.82 -1389.81,-411.91 -106.81,24.52 -196.52,59.59 -285.79,95.21 -45.94,18.34 -83.5,37.69 -124.07,62.2 -43.29,26.16 -80.13,44.61 -121.96,72.78 -67.44,45.42 -171.09,131.63 -225.93,188.93 -1.21,1.25 -2.87,3.13 -4.05,4.41 -10.65,11.52 -13.46,15.57 -24.23,26.57 -121.56,124.05 -232.68,299.68 -293.17,460.37 -63.08,167.56 -119.68,360.97 -119.68,549.19z"/>
   <path class="fil0" d="M6096 3022.59l144.92 312.28c42.02,116.67 80.62,225.99 106.96,358.7 174.38,878.29 -177.89,1739.96 -885.56,2259.81 -68.85,50.58 -209.7,141.38 -286.34,179.33 -224.41,111.11 -437.17,198.19 -697.49,233.83 -599.33,82.06 -1161.41,-65.88 -1640.57,-390.68 -85.82,-58.17 -232.92,-188.34 -308.68,-267.05 -340.21,-353.46 -567.73,-847.46 -624.97,-1339.3 -87.73,-753.84 257.95,-1496.47 799.21,-1953.9 332.8,-281.27 861.78,-519.08 1330.9,-519.08 294.86,0 437.21,0.98 719.08,81 256.89,72.92 587.3,232.18 789.62,404.18 219.21,186.37 356.28,329.28 512.23,579.97l40.69 60.91zm-440.27 -1134.53c0,-291.89 156.54,-519.52 385.86,-655.54 54.02,-32.04 93.63,-48.43 155.81,-64.32 204.18,-52.18 435.25,-22.01 609.84,93.29 491.04,324.29 430.12,1095.08 -132.96,1314.92 -448.88,175.25 -1018.55,-125 -1018.55,-688.35zm-5037.66 -1278.46c-70.5,47.2 -213.36,233.96 -265.93,309.81 -159.83,230.64 -287.28,529.72 -328.25,823.21 -22.39,160.37 -23.82,320.3 -23.89,502.89l0 57.42 0 3471.32 0 542.93c18.16,181.63 37.68,346.24 96.31,520.69 85.29,253.75 156.16,373.5 291.48,572.12l96.7 123.44c84.38,96.82 151.48,172.53 253.3,254.7 27.2,21.95 49.25,42.45 78.58,65.34 232.83,181.78 489.51,302.05 783.82,376.12 171.97,43.27 308.47,50.79 524.94,50.79 1351.84,0 2703.69,0 4055.53,0 222.9,0 348.59,-11.08 528.33,-55.87 188.58,-46.99 357.54,-116.35 513.51,-206.16 153.22,-88.21 290.58,-185.61 416.54,-311.59 111.34,-111.34 177.44,-177.71 268.8,-306.93 42.13,-59.6 75.46,-115.12 114.98,-181.35 35.48,-59.45 68.66,-129.13 96.61,-191.26 63.49,-141.1 186.37,-553.82 169.44,-697.76 -0.01,-22.85 0,0 -0.01,-22.85l0 -96.53c-7.31,-1053.38 -1.44,-2129.21 -0.21,-3187.49 0.13,-115.94 0.21,-231.67 0.21,-347.13l0 -610.58c-11.06,-332.9 -60.11,-643.82 -245.09,-964.65 -126.96,-220.18 -210.04,-331.93 -396.26,-518.15 -143.76,-143.76 -216.07,-198.25 -385.78,-300.01 -132.97,-79.73 -323.87,-159.14 -475.04,-202.3 -210.09,-59.99 -345.8,-76.09 -505.41,-79.77l-329.22 0 -3200.4 0 -768.71 0c-46.98,2.17 -92.64,5.15 -136.46,9.22 -135.75,12.6 -256.61,46.21 -376.96,80.25 -260.51,73.67 -456.34,186.64 -670.01,354.45 -47.8,37.56 -154,124.68 -181.45,165.68z"/>
  </g>
 </g>
</svg>
