<?xml version="1.0" encoding="UTF-8"?>
<!DOCTYPE svg PUBLIC "-//W3C//DTD SVG 1.1//EN" "http://www.w3.org/Graphics/SVG/1.1/DTD/svg11.dtd">
<!-- Creator: CorelDRAW 2018 -->
<svg xmlns="http://www.w3.org/2000/svg" xml:space="preserve" width="56.2823mm" height="70.3444mm" version="1.1" style="shape-rendering:geometricPrecision; text-rendering:geometricPrecision; image-rendering:optimizeQuality; fill-rule:evenodd; clip-rule:evenodd"
viewBox="0 0 5628.22 7034.43"
 xmlns:xlink="http://www.w3.org/1999/xlink">
 <defs>
  <style type="text/css">
   <![CDATA[
    .fil0 {fill:#FDD600}
   ]]>
  </style>
 </defs>
 <g id="Layer_x0020_1">
  <metadata id="CorelCorpID_0Corel-Layer"/>
  <path class="fil0" d="M2826.01 2765.09c-159.49,0 -206.2,-85.82 -206.2,-242.58l0 -1491.84c0,-339.07 448.77,-328.82 448.77,-12.13l0 1394.81c0,85.71 -22.82,177.33 -56.26,234.85 -32.99,56.74 -101.43,116.89 -186.31,116.89zm25.01 4269.34l-47.47 0c-228.82,-7.96 -454,-132.67 -576.19,-371.67 -72.07,-140.97 -68.44,-217.19 -68.44,-368.19 -417.76,0 -965.74,-199.99 -1306.09,-404.07 -95.76,-57.41 -175.98,-106.75 -263.75,-172.91l-294.43 -239.23c-21.53,-18.01 -35.23,-33.99 -55.12,-54.02 -152.93,-153.81 -239.54,-238.19 -239.54,-463.94 0,-182.41 169.71,-339.6 351.73,-339.6 156.22,0 197.66,20.77 300.22,124.28 63.43,64.04 122.38,127.66 187.82,188.18 24.64,22.8 29.98,22.48 54.12,42.89 367.89,311.15 703.97,479.73 1209.38,549.31 102.99,14.17 247.92,9.06 334.62,29.25 0,-120.6 10.94,-259.59 -19.49,-356.5 -80.85,-257.47 -311.37,-238.72 -481.17,-270.82 -58.57,-11.07 -98.68,-24.01 -144.13,-37.12 -224.38,-64.68 -449.02,-170.56 -630.64,-303.97 -172.23,-126.51 -162.96,-139.38 -292.18,-265.75 -37.92,-37.09 -51.54,-56.79 -84.8,-97.11 -100.6,-121.95 -210.1,-325.5 -262.67,-489.33 -89.22,-278.06 -65.6,-396.98 -73.65,-666.2 -1.63,-54.57 -8.42,-114.82 -13.21,-180.86 -20.63,-285.16 -118.24,-419.06 -311.75,-610.05 -119.2,-117.65 -124.2,-184.25 -124.2,-324.56 0,-196.01 383.29,-752.52 989.79,150.32 119.08,177.26 186.17,409.34 209.26,627.63 14.54,137.39 10.5,486.06 18.51,539.41 31.72,211.25 117.51,423.08 264.95,571.95 103.77,104.79 188.28,164.83 324.63,233.31 158.09,79.39 655.01,276.68 655.01,-97.1 0,-510.49 -325.46,-299.33 -518.1,-537.02l-28.54 -42.44c-103.83,-165.55 -59.8,-304.98 -59.81,-536.39l0 -1746.56c0,-406.04 114.85,-725.64 441.32,-941.36 747.53,-493.99 1535.69,157.66 1535.69,771.56 0,309.08 21.53,1519.27 -25.11,1745.7l-59.8 231.3c149.77,-3.34 401.33,-150.63 497.25,-218.35 531.56,-375.2 580.5,-878.62 743.25,-1015.44 232.58,-195.54 639.47,-49.65 639.47,263.48 0,323.21 -402.01,937.93 -676.27,1179.44 -24.27,21.38 -30.25,21.22 -54.37,42.67 -198.35,176.26 -346.39,277.48 -607.5,399.19 -175.54,81.82 -356.8,125.83 -575.03,164.83 -310.19,55.42 -489.1,296.55 -488.34,627.51l0.01 1103.73c284.47,-23.67 742.82,-235.7 973.89,-408.81 87.41,-65.48 171.74,-136.85 248.2,-212.69 28.05,-27.83 31.59,-32.56 56.57,-64.72 21.04,-27.09 31.04,-32.83 51.93,-57.21 283.15,-330.63 289,-641.85 384.32,-767.93 136.68,-180.76 412.54,-200.87 574.72,-50.54 311.15,288.43 -103.37,976.59 -288.33,1234.48 -162.73,226.9 -376.95,400.98 -597.77,566.58 -197.72,148.3 -536.05,311.06 -774.37,390.01 -66.83,22.13 -127.57,41.29 -193.94,60.77 -52.92,15.54 -149.91,45.35 -204.78,49.92 4.9,58.81 24.27,76.03 24.27,145.55 0,133.78 -1.06,210.84 -68.71,331.55 -125.96,224.72 -342.13,339.82 -561.24,347.66z"/>
 </g>
</svg>
