<?xml version="1.0" encoding="UTF-8"?>
<!DOCTYPE svg PUBLIC "-//W3C//DTD SVG 1.1//EN" "http://www.w3.org/Graphics/SVG/1.1/DTD/svg11.dtd">
<!-- Creator: CorelDRAW 2018 -->
<svg xmlns="http://www.w3.org/2000/svg" xml:space="preserve" width="75.1842mm" height="19.8145mm" version="1.1" style="shape-rendering:geometricPrecision; text-rendering:geometricPrecision; image-rendering:optimizeQuality; fill-rule:evenodd; clip-rule:evenodd"
viewBox="0 0 7518.42 1981.45"
 xmlns:xlink="http://www.w3.org/1999/xlink">
 <defs>
  <style type="text/css">
   <![CDATA[
    .fil0 {fill:#FED700}
   ]]>
  </style>
 </defs>
 <g id="Layer_x0020_1">
  <metadata id="CorelCorpID_0Corel-Layer"/>
  <g id="_658653456">
   <path class="fil0" d="M624.94 1869.04c-12.33,-30.32 -19.96,-63.37 -14.11,-96.09 -203.31,-11.59 -393.55,-102.37 -539.08,-242.81 -36.05,-34.81 -71.3,-70.59 -71.74,-123.97 -0.53,-62.03 49.38,-105.29 110.15,-104.44 47.46,0.69 71.71,32.98 102.23,64.3 131.17,134.72 291.56,196.14 476,198.55 3.04,-58.61 7.8,-124.33 -52.04,-157.72 -28.01,-15.62 -61.62,-13.45 -92.21,-20.13 -221.61,-48.29 -410.26,-224.03 -416.65,-460.55 -2.22,-82.63 5.73,-173.2 -49.72,-241.72 -16.09,-19.87 -36.64,-35.25 -52.65,-54.84 -78.53,-95.99 43.63,-247.05 162.84,-141.15 99.67,88.52 143.61,178.66 150.95,308.57l1.51 101.28c8.85,149.36 113.59,250.37 255.73,280.37 77.85,16.45 107.69,-4.99 96.75,-93.79 -7.71,-62.37 -48.15,-70.2 -94.65,-83.82 -41.44,-12.17 -70.51,-51.19 -75.07,-93.62 -2.27,-21.09 0.14,-42.44 0.17,-63.64l-0.05 -516.58c0,-30.18 -0.07,-60.06 5.12,-89.92 21.91,-125.87 123.14,-223.07 251.25,-236.55 147.34,-11.24 284.83,104.59 299.63,251.98 2.73,27.25 1.63,55.08 1.65,82.45l0.03 276.63c-0.07,74.46 0.41,144.56 -27.86,214.7 146.02,-29.32 257.46,-149.53 313.23,-282.58 8.11,-19.36 15.67,-40.49 29.37,-56.65 37.51,-44.19 113.66,-47.09 156.43,-9 53.53,47.68 30.08,113.69 5.8,170.13 -85.6,199.02 -267.55,358.82 -483.06,399.03 -16.9,3.15 -33.81,5.1 -50.21,10.44 -53.7,17.52 -99.14,64 -111.98,119.28 -6.77,29.15 -5.68,60.59 -5.7,90.4l0.85 275.65 46.09 -10.14c179,-43.65 353.08,-166.91 412.36,-347.28 6.78,-20.6 10.16,-43.34 21.65,-62.03 48.01,-78 176.51,-62.5 196.67,30.71 6.04,27.96 -1.25,60.33 -8.8,87.45 -76.17,272.85 -335.97,451.8 -603.33,507.4 6.94,23.61 11.79,48.31 8.63,73.02 -10.34,80.53 -79.78,148.73 -160.65,157.85 -83.56,9.43 -160.99,-36.07 -195.53,-111.17zm166.38 -1649.93c-65.15,11.43 -53.85,83.02 -53.85,131.82l-0.02 290.73c0.02,32.34 -2.85,67.88 3.42,99.62 5.6,28.49 37.53,45.09 64.71,38.7l4.97 -1.24c66.08,-26.45 55.13,-102.42 55.21,-160.07l-0.74 -344.11c-2.07,-37.59 -37.68,-59.96 -73.7,-55.45z"/>
   <path class="fil0" d="M2061.79 1368.79l0 -909.62 197.65 0c67.37,0 120.72,10.28 160.01,30.88 39.32,20.6 67.4,51.48 84.24,92.65 16.85,41.17 25.25,92.45 25.25,153.85l0 334.65c0,64.37 -8.4,118.66 -25.25,162.85 -16.84,44.16 -44.16,77.65 -81.99,100.49 -37.81,22.84 -88.53,34.25 -152.17,34.25l-207.74 0zm126.89 -90.97l71.88 0c46.41,0 79.36,-8.97 98.81,-26.93 19.48,-17.97 31.27,-44.19 35.4,-78.61 4.11,-34.44 6.16,-76 6.16,-124.67l0 -295.34c0,-47.17 -3,-85.34 -8.99,-114.54 -5.98,-29.19 -19.09,-50.55 -39.29,-64.02 -20.21,-13.46 -52.04,-20.21 -95.46,-20.21l-68.51 0 0 724.32zm634.51 99.96c-50.92,0 -90.24,-9.92 -117.93,-29.76 -27.71,-19.84 -46.96,-49.04 -57.84,-87.6 -10.84,-38.56 -16.28,-85.9 -16.28,-142.06l0 -148.23c0,-57.65 5.61,-105.57 16.85,-143.74 11.23,-38.19 30.88,-67 58.96,-86.48 28.07,-19.45 66.81,-29.2 116.24,-29.2 54.64,0 94.89,11.24 120.7,33.71 25.83,22.45 42.87,54.84 51.11,97.13 8.24,42.29 12.36,93.01 12.36,152.17l0 52.77 -256.05 0 0 130.28c0,26.2 2.43,47.53 7.28,64 4.88,16.48 12.75,28.64 23.6,36.49 10.84,7.87 24.88,11.8 42.12,11.8 17.96,0 31.61,-4.29 40.97,-12.92 9.36,-8.61 15.72,-20.96 19.11,-37.05 3.36,-16.08 5.05,-35 5.05,-56.72l0 -39.29 116.8 0 0 24.69c0,65.15 -13.87,116.44 -41.56,153.85 -27.71,37.44 -74.88,56.16 -141.49,56.16zm-71.88 -396.42l138.13 0 0 -58.4c0,-26.93 -1.49,-49.6 -4.49,-67.93 -3,-18.35 -9.19,-32.2 -18.55,-41.56 -9.36,-9.36 -24.13,-14.04 -44.33,-14.04 -19.48,0 -34.27,4.51 -44.37,13.48 -10.11,9 -17.03,24.15 -20.79,45.49 -3.72,21.32 -5.6,50.71 -5.6,88.15l0 34.81zm515.46 396.42c-53.16,0 -95.84,-16.65 -128.04,-49.97 -32.19,-33.32 -50.53,-77.31 -55.01,-131.96l99.94 -30.32c5.99,41.17 16.08,72.05 30.31,92.64 14.24,20.6 35.2,30.89 62.89,30.89 21.72,0 38.19,-6.17 49.41,-18.53 11.23,-12.36 16.86,-29 16.86,-49.96 0,-18.72 -4.14,-35.56 -12.36,-50.55 -8.23,-14.97 -21.71,-30.32 -40.43,-46.04l-111.17 -95.46c-22.47,-19.44 -41.36,-41.16 -56.72,-65.12 -15.35,-23.96 -23.01,-55.04 -23.01,-93.21 0,-34.44 6.92,-63.45 20.77,-87.04 13.84,-23.57 33.32,-41.56 58.4,-53.89 25.08,-12.36 54.45,-18.55 88.16,-18.55 53.89,0 95.08,16.67 123.53,49.99 28.44,33.32 44.92,73.54 49.4,120.73l-85.36 30.32c-2.99,-22.48 -7.48,-42.12 -13.47,-58.96 -5.98,-16.84 -14.6,-29.96 -25.82,-39.32 -11.23,-9.36 -25.83,-14.04 -43.8,-14.04 -19.47,0 -35,6.56 -46.6,19.65 -11.6,13.11 -17.4,28.64 -17.4,46.63 0,11.21 2.43,22.25 7.28,33.12 4.88,10.85 13.29,21.52 25.28,32l114.53 105.57c15.73,14.21 30.52,29.56 44.37,46.04 13.84,16.45 25.27,35.17 34.24,56.13 8.99,20.96 13.48,45.31 13.48,73 0,36.69 -7.48,67.4 -22.45,92.09 -14.97,24.71 -35.95,43.24 -62.88,55.6 -26.96,12.35 -58.4,18.52 -94.33,18.52zm446.95 0c-53.17,0 -93.4,-10.68 -120.73,-32 -27.32,-21.36 -45.68,-51.48 -55.04,-90.41 -9.36,-38.92 -14.04,-84.23 -14.04,-135.88l0 -149.36c0,-54.65 4.88,-101.26 14.61,-139.81 9.75,-38.57 28.27,-68.13 55.59,-88.73 27.32,-20.57 67.18,-30.88 119.61,-30.88 47.16,0 83.65,7.68 109.49,23.03 25.83,15.36 43.6,38.18 53.33,68.5 9.75,30.32 14.6,67.95 14.6,112.87l0 38.17 -108.93 0 0 -39.29c0,-28.45 -1.88,-50.91 -5.61,-67.4 -3.75,-16.45 -10.48,-28.44 -20.21,-35.92 -9.74,-7.48 -23.59,-11.24 -41.55,-11.24 -19.48,0 -34.44,4.51 -44.93,13.48 -10.47,9 -17.4,24.15 -20.76,45.49 -3.39,21.32 -5.07,50.35 -5.07,87.03l0 204.38c0,55.4 5.24,92.45 15.72,111.17 10.48,18.72 29.2,28.08 56.16,28.08 20.2,0 35,-4.68 44.36,-14.04 9.36,-9.36 15.36,-22.64 17.96,-39.85 2.61,-17.23 3.93,-36.69 3.93,-58.4l0 -52.79 108.93 0 0 44.91c0,43.44 -5.05,80.88 -15.17,112.32 -10.09,31.44 -28.08,55.4 -53.89,71.85 -25.83,16.48 -61.96,24.72 -108.36,24.72zm377.31 0c-25.45,0 -45.29,-6.73 -59.53,-20.21 -14.21,-13.47 -24.12,-30.32 -29.73,-50.55 -5.63,-20.2 -8.43,-40.8 -8.43,-61.76l0 -525.55 120.16 0 0 489.62c0,23.21 3.36,41.36 10.09,54.48 6.75,13.08 20.6,19.64 41.56,19.64 13.48,0 27.52,-3.92 42.12,-11.79 14.6,-7.85 28.63,-17.41 42.11,-28.64l0 -523.31 120.17 0 0 649.08 -120.17 0 0 -64.01c-20.98,20.23 -44.72,37.44 -71.31,51.67 -26.6,14.21 -55.6,21.33 -87.04,21.33zm633.38 0c-23.23,0 -44,-5.8 -62.32,-17.41 -18.36,-11.59 -34.27,-24.51 -47.73,-38.75l0 47.17 -120.16 0 0 -909.62 120.16 0 0 312.18c14.21,-16.45 31.25,-30.68 51.09,-42.65 19.84,-11.99 43.6,-17.99 71.29,-17.99 33.71,0 60.48,8.8 80.31,26.4 19.85,17.6 34.62,39.68 44.37,66.25 9.72,26.59 16.08,53.55 19.08,80.87 3,27.32 4.49,50.72 4.49,70.17l0 157.24c0,45.65 -4.49,88.89 -13.48,129.69 -8.97,40.81 -25.08,73.76 -48.29,98.81 -23.2,25.09 -56.16,37.64 -98.81,37.64zm-24.72 -94.33c20.97,0 35.93,-7.68 44.93,-23.03 8.99,-15.33 14.6,-36.12 16.84,-62.33 2.24,-26.2 3.36,-55.01 3.36,-86.45l0 -157.24c0,-26.93 -1.48,-51.84 -4.48,-74.68 -3,-22.81 -9.36,-40.97 -19.09,-54.45 -9.75,-13.48 -25.08,-20.21 -46.04,-20.21 -15.72,0 -30.52,3.37 -44.36,10.09 -13.84,6.76 -26.03,14.24 -36.49,22.48l0 416.62c10.46,8.24 23.01,15.16 37.61,20.77 14.6,5.63 30.52,8.43 47.72,8.43zm297.59 85.34l0 -649.08 120.16 0 0 92.08c23.96,-39.68 47.92,-66.25 71.88,-79.73 23.96,-13.47 47.92,-20.23 71.88,-20.23 3,0 5.8,0 8.41,0 2.63,0 6.19,0.39 10.68,1.15l0 132.5c-9,-3.74 -19.28,-6.93 -30.89,-9.53 -11.6,-2.64 -23.4,-3.95 -35.36,-3.95 -18.72,0 -35.76,4.31 -51.12,12.91 -15.35,8.61 -30.51,25.28 -45.48,49.97l0 473.91 -120.16 0zm533.42 8.99c-50.89,0 -90.2,-9.92 -117.9,-29.76 -27.71,-19.84 -46.99,-49.04 -57.83,-87.6 -10.87,-38.56 -16.29,-85.9 -16.29,-142.06l0 -148.23c0,-57.65 5.61,-105.57 16.85,-143.74 11.23,-38.19 30.88,-67 58.96,-86.48 28.07,-19.45 66.81,-29.2 116.21,-29.2 54.67,0 94.92,11.24 120.73,33.71 25.84,22.45 42.87,54.84 51.11,97.13 8.22,42.29 12.33,93.01 12.33,152.17l0 52.77 -256.02 0 0 130.28c0,26.2 2.43,47.53 7.29,64 4.87,16.48 12.72,28.64 23.59,36.49 10.85,7.87 24.89,11.8 42.1,11.8 17.98,0 31.63,-4.29 40.99,-12.92 9.36,-8.61 15.72,-20.96 19.09,-37.05 3.38,-16.08 5.07,-35 5.07,-56.72l0 -39.29 116.77 0 0 24.69c0,65.15 -13.84,116.44 -41.53,153.85 -27.71,37.44 -74.88,56.16 -141.52,56.16zm-71.85 -396.42l138.13 0 0 -58.4c0,-26.93 -1.51,-49.6 -4.51,-67.93 -3,-18.35 -9.17,-32.2 -18.52,-41.56 -9.36,-9.36 -24.14,-14.04 -44.37,-14.04 -19.45,0 -34.24,4.51 -44.36,13.48 -10.09,9 -17.04,24.15 -20.77,45.49 -3.72,21.32 -5.6,50.71 -5.6,88.15l0 34.81zm582.83 387.43l193.14 -909.62 122.41 0 194.28 909.62 -120.16 0 -41.56 -229.09 -185.29 0 -43.8 229.09 -119.02 0zm179.66 -320.06l151.61 0 -76.36 -409.88 -75.25 409.88zm386.33 482.9l0 -92.09c29.2,0 52.41,-1.31 69.61,-3.92 17.21,-2.63 29.57,-7.48 37.08,-14.6 7.48,-7.12 11.21,-17.04 11.21,-29.76 0,-6.75 -2.61,-21.72 -7.85,-44.92 -5.24,-23.21 -10.87,-47.92 -16.84,-74.13l-130.28 -552.5 121.28 0 87.6 485.13 84.22 -485.13 121.28 0 -154.97 685.03c-6.72,31.44 -19.08,56.32 -37.05,74.68 -17.96,18.33 -41,31.61 -69.07,39.85 -28.08,8.24 -61.96,12.36 -101.62,12.36l-14.6 0zm460.43 -162.84l0 -909.62 225.7 0c54.67,0 98.28,9.92 130.84,29.76 32.56,19.84 56.33,48.48 71.32,85.92 14.96,37.41 22.45,82.72 22.45,135.86 0,47.92 -8.43,89.48 -25.28,124.67 -16.84,35.18 -41.73,62.33 -74.66,81.41 -32.95,19.09 -74.12,28.64 -123.55,28.64l-99.93 0 0 423.36 -126.89 0zm126.89 -514.32l58.4 0c36.68,0 65.49,-4.12 86.45,-12.36 20.99,-8.24 35.95,-22.64 44.92,-43.24 9,-20.57 13.48,-49.6 13.48,-87.04 0,-43.41 -3.16,-76.73 -9.53,-99.93 -6.38,-23.21 -19.67,-39.32 -39.88,-48.29 -20.2,-8.99 -51.64,-13.47 -94.32,-13.47l-59.52 0 0 304.33z"/>
  </g>
 </g>
</svg>
