<?xml version="1.0" encoding="UTF-8"?>
<!DOCTYPE svg PUBLIC "-//W3C//DTD SVG 1.1//EN" "http://www.w3.org/Graphics/SVG/1.1/DTD/svg11.dtd">
<!-- Creator: CorelDRAW 2018 -->
<svg xmlns="http://www.w3.org/2000/svg" xml:space="preserve" width="84.6666mm" height="84.6666mm" version="1.1" style="shape-rendering:geometricPrecision; text-rendering:geometricPrecision; image-rendering:optimizeQuality; fill-rule:evenodd; clip-rule:evenodd"
viewBox="0 0 8466.66 8466.66"
 xmlns:xlink="http://www.w3.org/1999/xlink">
 <defs>
  <style type="text/css">
   <![CDATA[
    .fil0 {fill:#FED700}
   ]]>
  </style>
 </defs>
 <g id="Layer_x0020_1">
  <metadata id="CorelCorpID_0Corel-Layer"/>
  <g id="_806361288">
   <path class="fil0" d="M3011.01 3980.46c-4.48,-11.01 -7.25,-23.02 -5.12,-34.9 -73.85,-4.21 -142.95,-37.18 -195.81,-88.2 -13.09,-12.64 -25.89,-25.64 -26.06,-45.02 -0.19,-22.54 17.94,-38.25 40.01,-37.94 17.24,0.25 26.05,11.98 37.13,23.36 47.65,48.93 105.91,71.24 172.9,72.11 1.1,-21.29 2.83,-45.16 -18.9,-57.28 -10.18,-5.68 -22.38,-4.89 -33.5,-7.32 -80.49,-17.54 -149.01,-81.37 -151.33,-167.28 -0.81,-30.01 2.08,-62.91 -18.06,-87.8 -5.85,-7.21 -13.31,-12.8 -19.13,-19.92 -28.52,-34.86 15.85,-89.73 59.15,-51.27 36.2,32.16 52.17,64.9 54.83,112.08l0.55 36.79c3.21,54.25 41.26,90.94 92.89,101.84 28.27,5.97 39.11,-1.81 35.14,-34.07 -2.8,-22.65 -17.49,-25.5 -34.38,-30.44 -15.05,-4.42 -25.61,-18.6 -27.27,-34.01 -0.82,-7.66 0.05,-15.41 0.06,-23.12l-0.02 -187.63c0,-10.96 -0.02,-21.81 1.86,-32.66 7.96,-45.72 44.73,-81.03 91.26,-85.92 53.52,-4.08 103.46,37.99 108.84,91.52 0.99,9.9 0.59,20.01 0.6,29.95l0.01 100.48c-0.03,27.05 0.15,52.51 -10.12,77.99 53.04,-10.65 93.51,-54.32 113.77,-102.65 2.95,-7.03 5.69,-14.7 10.67,-20.57 13.62,-16.05 41.28,-17.11 56.82,-3.27 19.44,17.32 10.92,41.29 2.11,61.8 -31.1,72.28 -97.19,130.33 -175.47,144.93 -6.13,1.15 -12.28,1.85 -18.23,3.79 -19.51,6.37 -36.01,23.25 -40.68,43.33 -2.46,10.59 -2.06,22.01 -2.07,32.84l0.31 100.12 16.74 -3.68c65.02,-15.86 128.25,-60.63 149.78,-126.14 2.46,-7.49 3.69,-15.75 7.87,-22.54 17.44,-28.33 64.11,-22.7 71.43,11.16 2.2,10.15 -0.45,21.91 -3.19,31.76 -27.67,99.11 -122.04,164.11 -219.15,184.3 2.52,8.58 4.29,17.55 3.13,26.53 -3.75,29.25 -28.97,54.02 -58.35,57.33 -30.35,3.42 -58.47,-13.1 -71.02,-40.38zm60.43 -599.29c-23.66,4.15 -19.55,30.15 -19.55,47.87l-0.01 105.61c0.01,11.74 -1.04,24.65 1.24,36.18 2.04,10.35 13.63,16.38 23.5,14.06l1.81 -0.45c24,-9.61 20.03,-37.2 20.05,-58.14l-0.26 -124.99c-0.76,-13.66 -13.69,-21.78 -26.78,-20.14z"/>
   <path class="fil0" d="M3532.91 3798.76l0 -330.4 71.79 0c24.47,0 43.85,3.74 58.12,11.22 14.28,7.48 24.48,18.7 30.6,33.65 6.12,14.95 9.17,33.58 9.17,55.88l0 121.56c0,23.38 -3.05,43.09 -9.17,59.15 -6.12,16.04 -16.04,28.2 -29.78,36.5 -13.73,8.29 -32.16,12.44 -55.27,12.44l-75.46 0zm46.09 -33.04l26.11 0c16.86,0 28.83,-3.26 35.89,-9.79 7.07,-6.52 11.36,-16.05 12.86,-28.55 1.49,-12.51 2.23,-27.6 2.23,-45.28l0 -107.28c0,-17.13 -1.08,-30.99 -3.26,-41.6 -2.17,-10.6 -6.93,-18.36 -14.27,-23.26 -7.34,-4.88 -18.9,-7.34 -34.67,-7.34l-24.89 0 0 263.1zm230.47 36.3c-18.5,0 -32.78,-3.6 -42.83,-10.81 -10.07,-7.2 -17.06,-17.81 -21.01,-31.82 -3.94,-14 -5.92,-31.2 -5.92,-51.59l0 -53.85c0,-20.94 2.04,-38.34 6.12,-52.2 4.08,-13.88 11.22,-24.34 21.42,-31.42 10.2,-7.06 24.26,-10.6 42.22,-10.6 19.85,0 34.46,4.08 43.84,12.24 9.38,8.15 15.57,19.92 18.56,35.28 3,15.36 4.49,33.79 4.49,55.27l0 19.17 -93 0 0 47.32c0,9.52 0.89,17.26 2.65,23.25 1.77,5.98 4.63,10.4 8.57,13.25 3.94,2.86 9.04,4.29 15.3,4.29 6.52,0 11.48,-1.56 14.88,-4.7 3.4,-3.12 5.71,-7.61 6.94,-13.45 1.22,-5.84 1.83,-12.72 1.83,-20.6l0 -14.28 42.43 0 0 8.97c0,23.67 -5.04,42.3 -15.1,55.89 -10.06,13.59 -27.2,20.39 -51.39,20.39zm-26.11 -143.99l50.17 0 0 -21.21c0,-9.78 -0.54,-18.01 -1.63,-24.67 -1.09,-6.67 -3.34,-11.7 -6.74,-15.1 -3.39,-3.4 -8.76,-5.1 -16.1,-5.1 -7.07,0 -12.45,1.64 -16.11,4.9 -3.68,3.27 -6.19,8.77 -7.55,16.52 -1.36,7.75 -2.04,18.42 -2.04,32.02l0 12.64zm187.23 143.99c-19.31,0 -34.81,-6.04 -46.51,-18.15 -11.69,-12.1 -18.35,-28.08 -19.98,-47.93l36.3 -11.01c2.18,14.95 5.84,26.17 11.01,33.65 5.17,7.48 12.79,11.22 22.84,11.22 7.89,0 13.88,-2.24 17.95,-6.73 4.08,-4.49 6.13,-10.54 6.13,-18.15 0,-6.8 -1.51,-12.92 -4.49,-18.36 -2.99,-5.44 -7.89,-11.02 -14.69,-16.73l-40.38 -34.67c-8.16,-7.06 -15.02,-14.95 -20.6,-23.65 -5.58,-8.7 -8.36,-19.99 -8.36,-33.86 0,-12.5 2.52,-23.04 7.54,-31.61 5.03,-8.56 12.11,-15.1 21.22,-19.58 9.11,-4.48 19.77,-6.73 32.02,-6.73 19.57,0 34.54,6.05 44.87,18.16 10.33,12.1 16.31,26.7 17.94,43.85l-31 11.01c-1.09,-8.16 -2.72,-15.3 -4.9,-21.42 -2.17,-6.11 -5.3,-10.88 -9.37,-14.28 -4.08,-3.4 -9.39,-5.1 -15.91,-5.1 -7.08,0 -12.72,2.38 -16.93,7.14 -4.21,4.76 -6.32,10.4 -6.32,16.93 0,4.08 0.88,8.09 2.65,12.04 1.77,3.94 4.82,7.81 9.18,11.62l41.6 38.34c5.71,5.17 11.08,10.74 16.11,16.73 5.03,5.97 9.18,12.77 12.44,20.39 3.27,7.61 4.9,16.45 4.9,26.51 0,13.33 -2.72,24.48 -8.16,33.45 -5.43,8.98 -13.06,15.71 -22.84,20.19 -9.79,4.49 -21.21,6.73 -34.26,6.73zm162.34 0c-19.31,0 -33.92,-3.88 -43.85,-11.62 -9.92,-7.76 -16.59,-18.7 -19.99,-32.84 -3.4,-14.14 -5.1,-30.6 -5.1,-49.35l0 -54.26c0,-19.85 1.77,-36.77 5.3,-50.78 3.55,-14.01 10.27,-24.75 20.2,-32.23 9.92,-7.47 24.4,-11.21 43.44,-11.21 17.13,0 30.39,2.79 39.77,8.36 9.38,5.58 15.84,13.87 19.37,24.88 3.54,11.01 5.3,24.68 5.3,41l0 13.86 -39.56 0 0 -14.27c0,-10.33 -0.68,-18.49 -2.04,-24.48 -1.36,-5.97 -3.8,-10.33 -7.34,-13.05 -3.54,-2.71 -8.57,-4.08 -15.09,-4.08 -7.08,0 -12.51,1.64 -16.32,4.9 -3.81,3.27 -6.32,8.77 -7.54,16.52 -1.23,7.75 -1.84,18.29 -1.84,31.61l0 74.24c0,20.12 1.9,33.58 5.71,40.38 3.8,6.8 10.6,10.2 20.39,10.2 7.34,0 12.72,-1.7 16.12,-5.1 3.4,-3.4 5.58,-8.23 6.52,-14.48 0.95,-6.26 1.43,-13.32 1.43,-21.21l0 -19.18 39.56 0 0 16.32c0,15.78 -1.83,29.38 -5.5,40.8 -3.67,11.42 -10.2,20.12 -19.58,26.1 -9.38,5.98 -22.5,8.97 -39.36,8.97zm137.05 0c-9.24,0 -16.45,-2.44 -21.62,-7.34 -5.16,-4.89 -8.76,-11.01 -10.8,-18.36 -2.05,-7.34 -3.06,-14.82 -3.06,-22.43l0 -190.9 43.64 0 0 177.85c0,8.43 1.22,15.02 3.67,19.79 2.45,4.75 7.48,7.13 15.09,7.13 4.9,0 10,-1.42 15.3,-4.28 5.3,-2.85 10.4,-6.32 15.3,-10.41l0 -190.08 43.64 0 0 235.77 -43.64 0 0 -23.25c-7.63,7.34 -16.25,13.6 -25.91,18.77 -9.66,5.16 -20.19,7.74 -31.61,7.74zm230.06 0c-8.44,0 -15.98,-2.1 -22.64,-6.32 -6.67,-4.21 -12.45,-8.9 -17.33,-14.07l0 17.13 -43.65 0 0 -330.4 43.65 0 0 113.39c5.16,-5.97 11.35,-11.14 18.55,-15.49 7.21,-4.36 15.84,-6.53 25.9,-6.53 12.24,0 21.96,3.19 29.17,9.58 7.21,6.4 12.57,14.42 16.11,24.07 3.54,9.66 5.85,19.45 6.94,29.37 1.08,9.93 1.62,18.43 1.62,25.49l0 57.11c0,16.59 -1.62,32.29 -4.89,47.11 -3.26,14.82 -9.11,26.79 -17.54,35.89 -8.43,9.11 -20.4,13.67 -35.89,13.67zm-8.98 -34.26c7.62,0 13.05,-2.79 16.32,-8.37 3.26,-5.56 5.3,-13.12 6.12,-22.63 0.81,-9.52 1.22,-19.99 1.22,-31.41l0 -57.11c0,-9.78 -0.54,-18.83 -1.63,-27.12 -1.09,-8.29 -3.4,-14.89 -6.93,-19.78 -3.54,-4.9 -9.11,-7.34 -16.73,-7.34 -5.71,0 -11.08,1.22 -16.11,3.66 -5.03,2.46 -9.46,5.17 -13.25,8.17l0 151.33c3.79,2.99 8.35,5.5 13.66,7.54 5.3,2.04 11.08,3.06 17.33,3.06zm108.09 31l0 -235.77 43.65 0 0 33.45c8.7,-14.41 17.4,-24.06 26.11,-28.96 8.7,-4.89 17.4,-7.35 26.1,-7.35 1.09,0 2.11,0 3.06,0 0.95,0 2.25,0.15 3.88,0.42l0 48.13c-3.27,-1.36 -7.01,-2.52 -11.22,-3.46 -4.22,-0.96 -8.5,-1.44 -12.85,-1.44 -6.8,0 -12.99,1.57 -18.56,4.69 -5.58,3.13 -11.09,9.18 -16.52,18.15l0 172.14 -43.65 0zm193.75 3.26c-18.48,0 -32.76,-3.6 -42.82,-10.81 -10.06,-7.2 -17.07,-17.81 -21.01,-31.82 -3.95,-14 -5.91,-31.2 -5.91,-51.59l0 -53.85c0,-20.94 2.03,-38.34 6.12,-52.2 4.08,-13.88 11.21,-24.34 21.41,-31.42 10.2,-7.06 24.27,-10.6 42.21,-10.6 19.86,0 34.48,4.08 43.85,12.24 9.39,8.15 15.58,19.92 18.57,35.28 2.98,15.36 4.48,33.79 4.48,55.27l0 19.17 -93 0 0 47.32c0,9.52 0.89,17.26 2.65,23.25 1.77,5.98 4.62,10.4 8.57,13.25 3.94,2.86 9.04,4.29 15.29,4.29 6.54,0 11.49,-1.56 14.89,-4.7 3.4,-3.12 5.71,-7.61 6.94,-13.45 1.22,-5.84 1.84,-12.72 1.84,-20.6l0 -14.28 42.41 0 0 8.97c0,23.67 -5.03,42.3 -15.08,55.89 -10.07,13.59 -27.2,20.39 -51.41,20.39zm-26.1 -143.99l50.18 0 0 -21.21c0,-9.78 -0.55,-18.01 -1.64,-24.67 -1.09,-6.67 -3.33,-11.7 -6.73,-15.1 -3.4,-3.4 -8.76,-5.1 -16.11,-5.1 -7.07,0 -12.44,1.64 -16.12,4.9 -3.66,3.27 -6.18,8.77 -7.54,16.52 -1.35,7.75 -2.04,18.42 -2.04,32.02l0 12.64zm211.7 140.73l70.16 -330.4 44.46 0 70.57 330.4 -43.65 0 -15.1 -83.22 -67.3 0 -15.91 83.22 -43.23 0zm65.26 -116.26l55.07 0 -27.74 -148.87 -27.33 148.87zm140.32 175.4l0 -33.44c10.61,0 19.04,-0.48 25.29,-1.43 6.25,-0.96 10.74,-2.72 13.46,-5.3 2.72,-2.59 4.08,-6.19 4.08,-10.81 0,-2.45 -0.95,-7.89 -2.85,-16.32 -1.91,-8.43 -3.95,-17.4 -6.12,-26.92l-47.32 -200.69 44.05 0 31.82 176.22 30.59 -176.22 44.05 0 -56.29 248.82c-2.44,11.43 -6.93,20.46 -13.45,27.13 -6.53,6.66 -14.9,11.48 -25.09,14.48 -10.2,2.99 -22.51,4.48 -36.91,4.48l-5.31 0zm167.24 -59.14l0 -330.4 81.98 0c19.86,0 35.7,3.61 47.53,10.81 11.82,7.21 20.46,17.61 25.9,31.21 5.44,13.59 8.16,30.05 8.16,49.35 0,17.4 -3.07,32.5 -9.19,45.28 -6.11,12.78 -15.15,22.64 -27.11,29.57 -11.97,6.93 -26.93,10.4 -44.88,10.4l-36.3 0 0 153.78 -46.09 0zm46.09 -186.82l21.21 0c13.33,0 23.79,-1.49 31.41,-4.48 7.62,-3 13.05,-8.23 16.31,-15.71 3.27,-7.47 4.9,-18.02 4.9,-31.62 0,-15.76 -1.15,-27.86 -3.46,-36.29 -2.32,-8.43 -7.15,-14.28 -14.49,-17.54 -7.34,-3.27 -18.76,-4.9 -34.26,-4.9l-21.62 0 0 110.54z"/>
  </g>
 </g>
</svg>
