<?xml version="1.0" encoding="UTF-8"?>
<!DOCTYPE svg PUBLIC "-//W3C//DTD SVG 1.1//EN" "http://www.w3.org/Graphics/SVG/1.1/DTD/svg11.dtd">
<!-- Creator: CorelDRAW 2018 -->
<svg xmlns="http://www.w3.org/2000/svg" xml:space="preserve" width="62.0683mm" height="73.4746mm" version="1.1" style="shape-rendering:geometricPrecision; text-rendering:geometricPrecision; image-rendering:optimizeQuality; fill-rule:evenodd; clip-rule:evenodd"
viewBox="0 0 6206.84 7347.47"
 xmlns:xlink="http://www.w3.org/1999/xlink">
 <defs>
  <style type="text/css">
   <![CDATA[
    .fil0 {fill:white}
   ]]>
  </style>
 </defs>
 <g id="Layer_x0020_1">
  <metadata id="CorelCorpID_0Corel-Layer"/>
  <g id="_779405288">
   <path class="fil0" d="M1826.33 5998.53l0 -1592.91 373.11 0 0 1650.3c0,226.46 330.06,24.26 330.06,-86.1l0 -1564.2 373.12 0 0 2052.12 -373.12 0 0 -215.26c-176.18,117.97 -140.77,243.96 -487.91,243.96 -213.9,0 -215.26,-334.09 -215.26,-487.91zm2343.37 1348.94l-49.84 0c-57.22,-0.15 -114.44,-0.03 -171.66,0l-26.7 0 -1523.36 0c-480.72,-3.71 -924.29,-12.69 -1070.16,-32.63 -437.72,-59.78 -1079.65,42.46 -1237.16,-728.84 -118.59,-580.69 -87,-1265.06 -87,-1879.02 0,-351.67 42.12,-811.63 130.71,-1074.73 93.14,-276.62 336.11,-489.15 662.32,-528.77 100.73,-12.24 176.57,-12.19 274.92,-26.45l567.98 -34.74c118.24,0.71 180.8,-15.09 286.7,-14.66 409.33,1.67 769.62,-14.02 1177.07,-14.02 407.45,0 767.75,15.69 1177.08,14.02 105.9,-0.43 168.46,15.37 286.7,14.66 184.39,-1.1 630.91,38.69 829.91,59.83 317.21,33.68 575.76,238.16 675.2,515.81l33.39 125.35c65.66,270.43 97.43,642.05 97.43,920.65 0,547.72 30.47,1411.04 -85.94,1908.78 -63.71,272.39 -147.56,445.43 -395.43,594.76 -231.97,139.75 -535.74,105.37 -842.8,147.37l-709.36 32.63zm-119.04 -861.03c-157.44,0 -234.16,-6.65 -376.86,-139.77 -37.86,-35.32 -31.5,-48.73 -68.01,-75.49l0 186.56 -373.11 0 0 -2755.3c113.85,0 271.94,-24.8 373.11,14.28l0 875.46c75.22,-50.37 178.05,-215.26 387.46,-215.26 280.06,0 330.06,289.45 330.06,574.01 0,254.31 26.51,1132.62 -44.43,1333.22 -34.23,96.78 -122.51,202.29 -228.22,202.29zm932.78 -947.14c0,196.31 -39.36,617.08 172.21,617.08 87.03,0 167.42,0.93 195.64,-134.41l19.61 -267.41 373.11 0c0,169.87 -0.98,372.97 -94.12,508.6 -253.92,369.72 -1025.22,335.02 -1025.22,-408.14l0 -846.68c0,-716.86 740.56,-787.83 1006.93,-404.21 138.11,198.89 112.41,610.4 112.41,892.12l-717.52 0c-33.07,0 -43.05,9.98 -43.05,43.05zm-4520.42 -1836.86l1305.89 0 0 373.12 -444.85 0 0 2382.18 -416.18 0 0 -2382.18 -444.86 0 0 -373.12z"/>
   <path class="fil0" d="M1395.81 2812.7l387.47 0 0 -1104.99c0,-50.03 97.08,-354.19 120.19,-425.13l319.53 -1058.12c19.17,-64.56 57.24,-160.61 62.54,-224.46l-430.52 0c-7.32,88.1 -264.58,979.32 -272.64,1076.29 -7.73,-11.13 -6.78,-7.24 -15.33,-27.73l-27.68 -101.49c-12.37,-47.85 -23.86,-79.9 -37.44,-134.75l-220.92 -812.32 -444.87 0 417.96 1261.06c31.95,99.78 61.24,216.22 87.81,328.34 22.73,95.84 11.89,866.36 10.8,1051.14 -0.41,70.34 -22.31,172.16 43.1,172.16z"/>
   <path class="fil0" d="M3720.61 746.23l0 1736.41c0,131.71 32.44,275.6 145.36,328.19 265.87,123.8 479.08,-160.66 557.81,-213.39 0,259.48 -76.11,215.26 387.46,215.26l0 -2109.52c-484.01,0 -387.46,-93.95 -387.46,459.21l0.12 1019.01c0.9,118.27 6.81,138.51 -53.6,204.71 -57.57,63.12 -105.39,96.53 -190.48,96.53 -111.61,0 -71.76,-287.79 -71.76,-401.82l0.02 -1176.75c0.39,-240.06 66.17,-200.89 -344.42,-200.89 -33.06,0 -43.05,9.99 -43.05,43.05z"/>
   <path class="fil0" d="M2873.91 2482.64c-142.89,0 -200.9,-83.15 -200.9,-258.31l0 -904.08c0,-158.06 36.39,-287.01 186.56,-287.01 146.73,0 172.21,181.05 172.21,330.06l0 774.93c0,145.95 -17.9,344.41 -157.87,344.41zm-588.37 -1090.65l0 760.59c0,265.48 79.99,512.67 296.06,622.37 263.12,133.58 572.47,52.48 716.86,-154.78 164.83,-236.6 120.78,-813.49 120.78,-1156.41 0,-201.62 -24.66,-415.18 -106.54,-539.25 -245.4,-371.92 -1027.16,-383.57 -1027.16,467.48z"/>
   <path class="fil0" d="M3605.8 4821.78l0 1234.14c0,49.31 99.2,100.46 200.92,100.46 152.86,0 157.85,-254.73 157.85,-416.16 0,-203.51 10.52,-686.88 -17.55,-872.2 -40.29,-265.97 -341.22,-135.43 -341.22,-46.24z"/>
   <path class="fil0" d="M4983.45 5051.39l0 143.5 387.46 0 0 -229.6c0,-141.02 -59.22,-258.31 -200.9,-258.31 -151.9,0 -186.56,187.9 -186.56,344.41z"/>
  </g>
 </g>
</svg>
